<mxfile host="app.diagrams.net" agent="Mozilla/5.0 (Windows NT 10.0; Win64; x64) AppleWebKit/537.36 (KHTML, like Gecko) Chrome/138.0.0.0 Safari/537.36" version="28.0.7">
  <diagram name="Page-1" id="egS6QkuDxYNzBrlykLM5">
    <mxGraphModel dx="1042" dy="562" grid="1" gridSize="10" guides="1" tooltips="1" connect="1" arrows="1" fold="1" page="1" pageScale="1" pageWidth="850" pageHeight="1100" math="0" shadow="0">
      <root>
        <mxCell id="0" />
        <mxCell id="1" parent="0" />
        <mxCell id="z4legyIccgOvoW1bbdhD-3" value="" style="edgeStyle=orthogonalEdgeStyle;rounded=0;orthogonalLoop=1;jettySize=auto;html=1;" edge="1" parent="1" source="z4legyIccgOvoW1bbdhD-1" target="z4legyIccgOvoW1bbdhD-2">
          <mxGeometry relative="1" as="geometry" />
        </mxCell>
        <mxCell id="z4legyIccgOvoW1bbdhD-1" value="&lt;b&gt;&lt;font style=&quot;font-size: 14px;&quot;&gt;Start&lt;/font&gt;&lt;/b&gt;" style="ellipse;whiteSpace=wrap;html=1;" vertex="1" parent="1">
          <mxGeometry x="370" y="10" width="120" height="80" as="geometry" />
        </mxCell>
        <mxCell id="z4legyIccgOvoW1bbdhD-5" value="" style="edgeStyle=orthogonalEdgeStyle;rounded=0;orthogonalLoop=1;jettySize=auto;html=1;" edge="1" parent="1" source="z4legyIccgOvoW1bbdhD-2" target="z4legyIccgOvoW1bbdhD-4">
          <mxGeometry relative="1" as="geometry" />
        </mxCell>
        <mxCell id="z4legyIccgOvoW1bbdhD-2" value="&lt;b&gt;&lt;font style=&quot;font-size: 14px;&quot;&gt;User Onbording&lt;/font&gt;&lt;/b&gt;" style="whiteSpace=wrap;html=1;" vertex="1" parent="1">
          <mxGeometry x="350" y="140" width="160" height="80" as="geometry" />
        </mxCell>
        <mxCell id="z4legyIccgOvoW1bbdhD-7" value="" style="edgeStyle=orthogonalEdgeStyle;rounded=0;orthogonalLoop=1;jettySize=auto;html=1;" edge="1" parent="1" source="z4legyIccgOvoW1bbdhD-4" target="z4legyIccgOvoW1bbdhD-6">
          <mxGeometry relative="1" as="geometry" />
        </mxCell>
        <mxCell id="z4legyIccgOvoW1bbdhD-4" value="&lt;b&gt;&lt;font style=&quot;font-size: 14px;&quot;&gt;Restaurant &amp;amp; Menu Browsing&lt;/font&gt;&lt;/b&gt;" style="ellipse;whiteSpace=wrap;html=1;" vertex="1" parent="1">
          <mxGeometry x="350" y="260" width="160" height="100" as="geometry" />
        </mxCell>
        <mxCell id="z4legyIccgOvoW1bbdhD-9" value="" style="edgeStyle=orthogonalEdgeStyle;rounded=0;orthogonalLoop=1;jettySize=auto;html=1;" edge="1" parent="1" source="z4legyIccgOvoW1bbdhD-6" target="z4legyIccgOvoW1bbdhD-8">
          <mxGeometry relative="1" as="geometry" />
        </mxCell>
        <mxCell id="z4legyIccgOvoW1bbdhD-6" value="&lt;b&gt;&lt;font style=&quot;font-size: 14px;&quot;&gt;Add to cart&lt;/font&gt;&lt;/b&gt;" style="rhombus;whiteSpace=wrap;html=1;" vertex="1" parent="1">
          <mxGeometry x="350" y="410" width="160" height="100" as="geometry" />
        </mxCell>
        <mxCell id="z4legyIccgOvoW1bbdhD-11" value="" style="edgeStyle=orthogonalEdgeStyle;rounded=0;orthogonalLoop=1;jettySize=auto;html=1;" edge="1" parent="1" source="z4legyIccgOvoW1bbdhD-8" target="z4legyIccgOvoW1bbdhD-10">
          <mxGeometry relative="1" as="geometry" />
        </mxCell>
        <mxCell id="z4legyIccgOvoW1bbdhD-8" value="&lt;b&gt;&lt;font style=&quot;font-size: 14px;&quot;&gt;Checkout process&lt;/font&gt;&lt;/b&gt;" style="rounded=1;whiteSpace=wrap;html=1;" vertex="1" parent="1">
          <mxGeometry x="340" y="560" width="180" height="90" as="geometry" />
        </mxCell>
        <mxCell id="z4legyIccgOvoW1bbdhD-13" value="" style="edgeStyle=orthogonalEdgeStyle;rounded=0;orthogonalLoop=1;jettySize=auto;html=1;" edge="1" parent="1" source="z4legyIccgOvoW1bbdhD-10" target="z4legyIccgOvoW1bbdhD-12">
          <mxGeometry relative="1" as="geometry" />
        </mxCell>
        <mxCell id="z4legyIccgOvoW1bbdhD-10" value="&lt;b&gt;&lt;font style=&quot;font-size: 14px;&quot;&gt;Order processing&lt;/font&gt;&lt;/b&gt;" style="shape=parallelogram;perimeter=parallelogramPerimeter;whiteSpace=wrap;html=1;fixedSize=1;rounded=1;" vertex="1" parent="1">
          <mxGeometry x="330" y="710" width="200" height="90" as="geometry" />
        </mxCell>
        <mxCell id="z4legyIccgOvoW1bbdhD-15" value="" style="edgeStyle=orthogonalEdgeStyle;rounded=0;orthogonalLoop=1;jettySize=auto;html=1;" edge="1" parent="1" source="z4legyIccgOvoW1bbdhD-12" target="z4legyIccgOvoW1bbdhD-14">
          <mxGeometry relative="1" as="geometry" />
        </mxCell>
        <mxCell id="z4legyIccgOvoW1bbdhD-12" value="&lt;b&gt;&lt;font style=&quot;font-size: 14px;&quot;&gt;Delivery Assignment&lt;/font&gt;&lt;/b&gt;" style="shape=trapezoid;perimeter=trapezoidPerimeter;whiteSpace=wrap;html=1;fixedSize=1;rounded=1;" vertex="1" parent="1">
          <mxGeometry x="340" y="850" width="180" height="80" as="geometry" />
        </mxCell>
        <mxCell id="z4legyIccgOvoW1bbdhD-20" value="" style="edgeStyle=orthogonalEdgeStyle;rounded=0;orthogonalLoop=1;jettySize=auto;html=1;" edge="1" parent="1" source="z4legyIccgOvoW1bbdhD-14" target="z4legyIccgOvoW1bbdhD-18">
          <mxGeometry relative="1" as="geometry" />
        </mxCell>
        <mxCell id="z4legyIccgOvoW1bbdhD-14" value="&lt;b&gt;&lt;font style=&quot;font-size: 14px;&quot;&gt;Order Tracking&lt;/font&gt;&lt;/b&gt;" style="shape=hexagon;perimeter=hexagonPerimeter2;whiteSpace=wrap;html=1;fixedSize=1;rounded=1;" vertex="1" parent="1">
          <mxGeometry x="340" y="970" width="180" height="90" as="geometry" />
        </mxCell>
        <mxCell id="z4legyIccgOvoW1bbdhD-22" value="" style="edgeStyle=orthogonalEdgeStyle;rounded=0;orthogonalLoop=1;jettySize=auto;html=1;" edge="1" parent="1" source="z4legyIccgOvoW1bbdhD-18" target="z4legyIccgOvoW1bbdhD-21">
          <mxGeometry relative="1" as="geometry" />
        </mxCell>
        <mxCell id="z4legyIccgOvoW1bbdhD-18" value="&lt;b&gt;&lt;font style=&quot;font-size: 14px;&quot;&gt;Order Delivered&lt;/font&gt;&lt;/b&gt;" style="rhombus;whiteSpace=wrap;html=1;rounded=1;" vertex="1" parent="1">
          <mxGeometry x="350" y="1110" width="160" height="110" as="geometry" />
        </mxCell>
        <mxCell id="z4legyIccgOvoW1bbdhD-26" value="" style="edgeStyle=orthogonalEdgeStyle;rounded=0;orthogonalLoop=1;jettySize=auto;html=1;" edge="1" parent="1" source="z4legyIccgOvoW1bbdhD-21" target="z4legyIccgOvoW1bbdhD-25">
          <mxGeometry relative="1" as="geometry" />
        </mxCell>
        <mxCell id="z4legyIccgOvoW1bbdhD-21" value="&lt;b&gt;&lt;font style=&quot;font-size: 14px;&quot;&gt;Post-Delivery&lt;/font&gt;&lt;/b&gt;" style="shape=parallelogram;perimeter=parallelogramPerimeter;whiteSpace=wrap;html=1;fixedSize=1;rounded=1;" vertex="1" parent="1">
          <mxGeometry x="330" y="1260" width="200" height="80" as="geometry" />
        </mxCell>
        <mxCell id="z4legyIccgOvoW1bbdhD-25" value="&lt;b&gt;&lt;font style=&quot;font-size: 14px;&quot;&gt;End&lt;/font&gt;&lt;/b&gt;" style="ellipse;whiteSpace=wrap;html=1;" vertex="1" parent="1">
          <mxGeometry x="370" y="1390" width="120" height="80" as="geometry" />
        </mxCell>
      </root>
    </mxGraphModel>
  </diagram>
</mxfile>
